<svg width="40" height="40" viewBox="0 0 40 40" fill="none" xmlns="http://www.w3.org/2000/svg">
<circle cx="20" cy="20" r="20" fill="#404099"/>
<path fill-rule="evenodd" clip-rule="evenodd" d="M20 11.75C17.1084 11.75 14.75 14.1084 14.75 17C14.75 18.8076 15.6729 20.4131 17.0703 21.3594C14.3955 22.5078 12.5 25.1621 12.5 28.25H14C14 26.082 15.1455 24.1953 16.8594 23.1406C17.3063 22.8296 17.9675 22.5891 18.2422 22.5078C18.7988 22.3379 19.3848 22.25 20 22.25C20.6152 22.25 21.2012 22.3379 21.7578 22.5078C22.099 22.639 22.8531 22.9492 23.1406 23.1406C24.8545 24.1953 26 26.082 26 28.25H27.5C27.5 25.1621 25.6045 22.5078 22.9297 21.3594C24.3271 20.4131 25.25 18.8076 25.25 17C25.25 14.1084 22.8916 11.75 20 11.75ZM23.75 17C23.75 14.9199 22.0801 13.25 20 13.25C17.9199 13.25 16.25 14.9199 16.25 17C16.25 19.0801 17.9199 20.75 20 20.75C22.0801 20.75 23.75 19.0801 23.75 17Z" fill="white"/>
<circle cx="34" cy="6" r="4" fill="#FE4400"/>
</svg>
