<svg width="24" height="23" viewBox="0 0 24 23" fill="none" xmlns="http://www.w3.org/2000/svg">
<path d="M19.7164 5.03125L3.99561 5.03125" stroke="black" stroke-width="2" stroke-linecap="round" stroke-linejoin="round"/>
<path d="M9.71289 9.34375V15.0938" stroke="black" stroke-width="2" stroke-linecap="round" stroke-linejoin="round"/>
<path d="M14.0002 9.34375V15.0938" stroke="black" stroke-width="2" stroke-linecap="round" stroke-linejoin="round"/>
<path d="M18.2875 5.03125V18.6875C18.2875 18.8781 18.2123 19.0609 18.0783 19.1957C17.9442 19.3305 17.7625 19.4062 17.573 19.4062H6.13963C5.95011 19.4062 5.76836 19.3305 5.63435 19.1957C5.50034 19.0609 5.42505 18.8781 5.42505 18.6875V5.03125" stroke="black" stroke-width="2" stroke-linecap="round" stroke-linejoin="round"/>
<path d="M15.4293 5.03125V3.59375C15.4293 3.2125 15.2787 2.84687 15.0107 2.57728C14.7427 2.3077 14.3792 2.15625 14.0001 2.15625H9.71261C9.33358 2.15625 8.97006 2.3077 8.70204 2.57728C8.43402 2.84687 8.28345 3.2125 8.28345 3.59375V5.03125" stroke="black" stroke-width="2" stroke-linecap="round" stroke-linejoin="round"/>
</svg>
