<svg width="24" height="23" viewBox="0 0 24 23" fill="none" xmlns="http://www.w3.org/2000/svg">
<path d="M8.81287 19.4063H4.52537C4.33585 19.4063 4.1541 19.3305 4.02009 19.1957C3.88608 19.061 3.81079 18.8781 3.81079 18.6875V14.6727C3.81079 14.5783 3.82927 14.4849 3.86519 14.3977C3.9011 14.3105 3.95373 14.2312 4.02009 14.1645L14.7388 3.38325C14.8728 3.24845 15.0546 3.17273 15.2441 3.17273C15.4336 3.17273 15.6154 3.24845 15.7494 3.38325L19.7409 7.39803C19.8749 7.53282 19.9502 7.71564 19.9502 7.90626C19.9502 8.09689 19.8749 8.2797 19.7409 8.4145L8.81287 19.4063Z" stroke="black" stroke-width="2" stroke-linecap="round" stroke-linejoin="round"/>
<path d="M12.3855 5.75L17.3876 10.7812" stroke="black" stroke-width="2" stroke-linecap="round" stroke-linejoin="round"/>
</svg>
